<?xml version="1.0" encoding="UTF-8" standalone="no"?><!DOCTYPE svg PUBLIC "-//W3C//DTD SVG 1.1//EN" "http://www.w3.org/Graphics/SVG/1.1/DTD/svg11.dtd"><svg width="100%" height="100%" viewBox="0 0 4500 4500" version="1.1" xmlns="http://www.w3.org/2000/svg" xmlns:xlink="http://www.w3.org/1999/xlink" xml:space="preserve" xmlns:serif="http://www.serif.com/" style="fill-rule:evenodd;clip-rule:evenodd;stroke-linejoin:round;stroke-miterlimit:2;"><g><g id="_40r-20r" serif:id="40r-20r"><g><path d="M4166.65,-0.008c184.099,0 333.329,149.24 333.329,333.329l-0,3833.32c-0,184.099 -149.23,333.338 -333.329,333.338l-3833.32,0c-184.099,0 -333.328,-149.239 -333.328,-333.338l-0,-3833.32c-0,-184.089 149.229,-333.329 333.328,-333.329l3833.32,0Z" style="fill:#adb9ce;"/></g><path d="M3375,395.837c0,92.05 -74.616,166.666 -166.666,166.666l-229.167,0c-92.05,0 -166.666,74.617 -166.666,166.667l-0,229.167c-0,92.05 -74.617,166.666 -166.667,166.666l-229.167,0c-92.05,0 -166.666,-74.616 -166.666,-166.666l-0,-229.167c-0,-92.05 -74.617,-166.667 -166.667,-166.667l-1354.17,0c-92.05,0 -166.667,74.617 -166.667,166.667l0,229.167c0,92.05 74.617,166.666 166.667,166.666l229.167,0c92.049,0 166.666,74.617 166.666,166.667l0,229.166c0,92.05 -74.617,166.667 -166.666,166.667l-229.167,0c-92.05,0 -166.667,74.617 -166.667,166.667l0,229.166c0,92.05 -74.616,166.667 -166.666,166.667l-395.834,-0l0,562.5l395.834,-0c92.05,-0 166.666,74.616 166.666,166.666l0,229.167c0,92.05 -74.616,166.667 -166.666,166.667l-395.834,-0l0,-3041.67c0,-184.092 149.242,-333.333 333.334,-333.333l1916.67,-0l-0,395.833c-0,92.05 74.616,166.666 166.666,166.666l229.167,0c92.05,0 166.667,-74.616 166.667,-166.666l-0,-395.833l562.499,-0l0,395.833Z" style="fill:#d6e5ff;"/><path d="M4166.67,0.004l-400,-0l-0,0.016c45.3,0 88.75,18 120.783,50.034c32.034,32.033 50.034,75.483 50.034,120.783l0.016,-0l0,3037.5c0,92.05 -74.616,166.667 -166.666,166.667l-229.167,-0c-92.05,-0 -166.667,74.616 -166.667,166.666l0,229.167c0,92.05 -74.616,166.666 -166.666,166.666l-3037.5,0c-94.35,0 -170.834,-76.483 -170.834,-170.833l0,400c0,184.092 149.242,333.333 333.334,333.333l3833.33,0c184.091,0 333.333,-149.241 333.333,-333.333l0,-3833.33c0,-184.092 -149.242,-333.333 -333.333,-333.333Z" style="fill:#5b677c;"/><g><clipPath id="_clip1"><path d="M4166.67,0.004l-400,-0l-0,0.016c45.3,0 88.75,18 120.783,50.034c32.034,32.033 50.034,75.483 50.034,120.783l0.016,-0l0,3037.5c0,92.05 -74.616,166.667 -166.666,166.667l-229.167,-0c-92.05,-0 -166.667,74.616 -166.667,166.666l0,229.167c0,92.05 -74.616,166.666 -166.666,166.666l-3037.5,0c-94.35,0 -170.834,-76.483 -170.834,-170.833l0,400c0,184.092 149.242,333.333 333.334,333.333l3833.33,0c184.091,0 333.333,-149.241 333.333,-333.333l0,-3833.33c0,-184.092 -149.242,-333.333 -333.333,-333.333Z"/></clipPath><g clip-path="url(#_clip1)"><g><path d="M3937.5,3541.67c0,-92.05 74.617,-166.666 166.667,-166.666l395.833,-0l0,958.333c0,92.05 -74.617,166.666 -166.667,166.666l-958.333,0l0,-395.833c0,-92.05 74.617,-166.667 166.667,-166.667l229.167,0c92.05,0 166.666,-74.616 166.666,-166.666l0,-229.167Z" style="fill:#4c5567;"/></g><g><path d="M1687.5,4104.17c-0,-92.05 74.617,-166.667 166.667,-166.667l229.166,0c92.05,0 166.667,74.617 166.667,166.667l-0,395.833l-562.5,0l-0,-395.833Z" style="fill:#4c5567;"/></g><g><path d="M4104.17,2812.5c-92.05,-0 -166.667,-74.617 -166.667,-166.667l0,-229.166c0,-92.05 74.617,-166.667 166.667,-166.667l395.833,-0l0,562.5l-395.833,-0Z" style="fill:#4c5567;"/></g><g><path d="M4104.17,1687.5c-92.05,0 -166.667,-74.617 -166.667,-166.667l0,-229.166c0,-92.05 74.617,-166.667 166.667,-166.667l395.833,0l0,562.5l-395.833,0Z" style="fill:#717e95;"/></g><g><path d="M0.001,3744.37l264.059,-0l-0,193.143l131.775,-0c92.05,-0 166.666,74.624 166.666,166.667l0,395.835l-562.5,0l0,-755.645Z" style="fill:#4c5567;"/></g><g><path d="M3744.37,0.004l-0,0.008c106.16,-0 192.214,86.058 192.214,192.217l0.929,-0l-0,203.608c-0,92.05 74.624,166.666 166.667,166.666l395.835,0l0,-562.499l-755.645,-0Z" style="fill:#717e95;"/></g></g></g><g><path d="M1687.5,1291.67c-0,-92.05 74.617,-166.667 166.667,-166.667l229.166,0c92.05,0 166.667,74.617 166.667,166.667l-0,229.166c-0,92.05 -74.617,166.667 -166.667,166.667l-229.166,0c-92.05,0 -166.667,-74.617 -166.667,-166.667l-0,-229.166Z" style="fill:#d6e5ff;"/></g><g><path d="M2812.5,2979.17c-0,-92.05 74.616,-166.666 166.666,-166.666l229.167,-0c92.05,-0 166.666,74.616 166.666,166.666l0,229.167c0,92.05 -74.616,166.667 -166.666,166.667l-229.167,-0c-92.05,-0 -166.666,-74.617 -166.666,-166.667l-0,-229.167Z" style="fill:#d6e5ff;"/></g><g><path d="M1125,2979.17c0,-92.05 74.617,-166.666 166.667,-166.666l229.166,-0c92.05,-0 166.667,74.616 166.667,166.666l-0,229.167c-0,92.05 -74.617,166.667 -166.667,166.667l-229.166,-0c-92.05,-0 -166.667,-74.617 -166.667,-166.667l0,-229.167Z" style="fill:#8e98a7;"/></g><g><path d="M2812.5,1291.67c-0,-92.05 74.616,-166.667 166.666,-166.667l229.167,0c92.05,0 166.666,74.617 166.666,166.667l0,791.666c0,92.05 -74.616,166.667 -166.666,166.667l-791.667,-0c-92.05,-0 -166.666,-74.617 -166.666,-166.667l-0,-229.166c-0,-92.05 74.616,-166.667 166.666,-166.667l229.167,0c92.05,0 166.667,-74.617 166.667,-166.667l-0,-229.166Z" style="fill:#8e98a7;"/></g><g><path d="M2250,3541.67c-0,-92.05 74.616,-166.666 166.666,-166.666l791.667,-0c92.05,-0 166.666,-74.617 166.666,-166.667l0,-229.167c0,-92.05 74.617,-166.666 166.667,-166.666l229.167,-0c92.05,-0 166.666,74.616 166.666,166.666l0,229.167c0,92.05 -74.616,166.667 -166.666,166.667l-229.167,-0c-92.05,-0 -166.667,74.616 -166.667,166.666l0,229.167c0,92.05 -74.616,166.666 -166.666,166.666l-791.667,0c-92.05,0 -166.666,-74.616 -166.666,-166.666l-0,-229.167Z" style="fill:#8e98a7;"/></g><g><path d="M562.501,1854.17c0,-92.05 74.617,-166.667 166.667,-166.667l229.167,0c92.049,0 166.666,-74.617 166.666,-166.667l0,-229.166c0,-92.05 74.617,-166.667 166.667,-166.667l229.166,0c92.05,0 166.667,74.617 166.667,166.667l-0,229.166c-0,92.05 -74.617,166.667 -166.667,166.667l-229.166,0c-92.05,0 -166.667,74.617 -166.667,166.667l0,229.166c0,92.05 -74.617,166.667 -166.666,166.667l-229.167,-0c-92.05,-0 -166.667,-74.617 -166.667,-166.667l0,-229.166Z" style="fill:#8e98a7;"/></g></g></g></svg>